<svg id="fi_8213544" enable-background="new 0 0 512 512" height="100%" viewBox="0 0 512 512" width="100%" xmlns="http://www.w3.org/2000/svg"><g id="_x32_"><path d="m291.36 130.14 181 181c19.52 19.53 19.52 51.19 0 70.72-19.53 19.52-51.19 19.52-70.72 0l-145.64-145.64-145.64 145.64c-19.53 19.52-51.19 19.52-70.72 0-19.52-19.53-19.52-51.19 0-70.72l181-181c19.53-19.52 51.19-19.52 70.72 0z"></path></g>
<path id="_x30_" d="m256 121.5c11.755 0 22.806 4.576 31.117 12.883l180.999 180.999c17.15 17.159 17.15 45.078.002 62.235-8.312 8.307-19.363 12.883-31.118 12.883s-22.806-4.576-31.117-12.883l-145.64-145.64-4.243-4.242-4.243 4.243-145.639 145.638c-8.312 8.308-19.363 12.884-31.118 12.884s-22.806-4.576-31.116-12.882c-17.15-17.159-17.15-45.078-.001-62.236l180.999-180.999c8.312-8.307 19.363-12.883 31.118-12.883m0-6c-12.797 0-25.595 4.88-35.36 14.64l-181 181c-19.52 19.53-19.52 51.19 0 70.72 9.765 9.76 22.562 14.64 35.36 14.64s25.595-4.88 35.36-14.64l145.64-145.64 145.64 145.64c9.765 9.76 22.562 14.64 35.36 14.64s25.595-4.88 35.36-14.64c19.52-19.53 19.52-51.19 0-70.72l-181-181c-9.765-9.76-22.563-14.64-35.36-14.64z"></path></svg>