<svg height="100%" viewBox="0 0 32 32" width="100%" xmlns="http://www.w3.org/2000/svg"><g id="_24_Up" data-name="24 Up"><path d="m28.0784 20.0264-11.25-15.24a1.0367 1.0367 0 0 0 -1.6094 0l-11.25 15.24a1.0074 1.0074 0 0 0 1.2275 1.5l6.76-3.15c.1514-.07 7.9834-.07 8.1348 0l6.76 3.15a.9972.9972 0 0 0 .4229.0938q1.318-.2011.8042-1.5938z" /><path d="m28.0551 26.0259-11.25-15.2393a1.0355 1.0355 0 0 0 -1.6094 0l-11.25 15.2393a1.0076 1.0076 0 0 0 1.2275 1.5l10.8268-5.0523 10.8271 5.0527a.9972.9972 0 0 0 .4229.0938 1.0089 1.0089 0 0 0 .8051-1.5942z" /></g></svg>