<svg version="1.1" id="fi_203566" xmlns="http://www.w3.org/2000/svg" xmlns:xlink="http://www.w3.org/1999/xlink" x="0px" y="0px" viewBox="0 0 512 512" style="enable-background:new 0 0 512 512;" xml:space="preserve">
<g>
	<g>
		<path d="M511.038,230.341c-0.481-5.058-5.192-8.928-10.279-8.928c-2.856,0-5.567,1.236-7.433,3.389
			c-1.875,2.159-2.721,5.014-2.317,7.841c0.865,6.058,1.298,12.216,1.298,18.308c0,70.581-57.423,127.999-127.999,127.999
			c-63.326,0-116.961-46.779-126.49-108.307h62.49c3.673,0,7.038-2.048,8.74-5.307c1.692-3.26,1.433-7.192-0.683-10.197
			L163.136,48.371c-3.692-5.25-12.423-5.25-16.115,0L1.791,255.139c-2.115,3.005-2.375,6.938-0.683,10.197
			c1.702,3.26,5.067,5.307,8.74,5.307h69.807c9.961,111.163,102.971,196.922,215.73,196.922
			C414.827,467.566,512,370.394,512,250.952C512,244.135,511.673,237.197,511.038,230.341z M295.386,447.874
			c-105.375,0-191.778-82.375-196.701-187.537c-0.25-5.25-4.577-9.385-9.836-9.385H28.801L155.079,71.159l126.278,179.792h-54.548
			c-2.731,0-5.337,1.134-7.202,3.134c-1.865,1.995-2.808,4.678-2.615,7.404c5.423,76.908,70.134,137.153,147.316,137.153
			c33.182,0,63.836-10.995,88.519-29.538C416.866,416.912,359.674,447.874,295.386,447.874z"></path>
	</g>
</g>
<g>
</g>
<g>
</g>
<g>
</g>
<g>
</g>
<g>
</g>
<g>
</g>
<g>
</g>
<g>
</g>
<g>
</g>
<g>
</g>
<g>
</g>
<g>
</g>
<g>
</g>
<g>
</g>
<g>
</g>
</svg>