<svg id="Layer_1" enable-background="new 0 0 64 64" viewBox="0 0 64 64" xmlns="http://www.w3.org/2000/svg"><g><g><g><path d="m57.3 64c-1.15 0-2.29-.45-3.14-1.35l-22.16-23.42-22.15 23.42c-1.64 1.74-4.38 1.81-6.11.17-1.74-1.64-1.82-4.38-.18-6.12l25.3-26.74c.82-.86 1.95-1.35 3.14-1.35 1.19 0 2.32.49 3.14 1.35l25.3 26.74c1.64 1.74 1.57 4.47-.17 6.11-.84.8-1.91 1.19-2.97 1.19z" fill="#010101"/></g></g><g><g><path d="m57.3 35.39c-1.15 0-2.29-.45-3.14-1.35l-22.16-23.42-22.15 23.42c-1.64 1.74-4.38 1.81-6.11.17-1.74-1.64-1.82-4.38-.18-6.12l25.3-26.74c.82-.86 1.95-1.35 3.14-1.35 1.19 0 2.32.49 3.14 1.35l25.3 26.74c1.64 1.74 1.57 4.47-.17 6.11-.84.8-1.91 1.19-2.97 1.19z" fill="#010101"/></g></g></g></svg>