<svg id="Layer_1" enable-background="new 0 0 48 48" height="100%" viewBox="0 0 48 48" width="100%" xmlns="http://www.w3.org/2000/svg"><path id="XMLID_951_" d="m46.756 36.737c-2.772 3.705-6.765 5.993-8.945 6.65-4.459 1.801-9.989 1.29-12.87.104-.725-.206-1.687-.709-2.56-1.113l-.013-.016c-3.233-1.422-7.734-6.293-8.758-11.407-1.679-5.631 1.4-11.37 2.59-14.082l3.401 4.181c.616.757 1.839.234 1.716-.734l-2.46-19.466c-.092-.729-.928-1.095-1.526-.669l-16.11 11.464c-.785.558-.365 1.796.598 1.762l6.003-.214c-.758 2.628-1.941 2.433-2.698 9.448-.332 4.153.863 8.741 1.67 10.529 2.182 5.876 7.643 11.111 12.178 12.836 7.232 3.04 14.446 2.409 19.736-.649 2.74-1.324 6.241-4.359 8.45-8.364.034-.063.039-.137.013-.203-.067-.177-.302-.209-.415-.057z"/></svg>